<svg id="Layer_1" data-name="Layer 1" xmlns="http://www.w3.org/2000/svg" viewBox="0 0 218.78 41.31"><defs><style>.cls-1{fill:#00853f;}</style></defs><path class="cls-1" d="M209.49,23h8l1.9-9.18h-8l2.11-10.16h-11.7L195.71,33a17.07,17.07,0,0,0-.45,4.18,6.16,6.16,0,0,0,1.62,3.88,7.91,7.91,0,0,0,3,2.2,10.48,10.48,0,0,0,3.82.6h9.09l1.83-8.81H210a3.89,3.89,0,0,1-2.44-.58c-.15-.13-.39-.34-.23-1.12Z" transform="translate(-6.55 -3.39)"/><polygon class="cls-1" points="8.35 0 6.33 9.73 18.99 9.73 21.01 0 8.35 0"/><path class="cls-1" d="M53.42,29.45l7.81,14.19h14.6l-9-15.87a26.23,26.23,0,0,0,4.13-2.9,15.76,15.76,0,0,0,4.35-7.56,11.3,11.3,0,0,0-2.08-9.85c-2.43-3-7.11-4.07-10.37-4.07H33l-2,9.73H45.37l10.67,0a7.75,7.75,0,0,1,4.51,1,1.8,1.8,0,0,1,.68,2.1A4.22,4.22,0,0,1,58.66,19,9.82,9.82,0,0,1,54.18,20H42.53l.92-3.95H30.4L24.58,43.63h13l2.94-14.19H53.42Z" transform="translate(-6.55 -3.39)"/><polygon class="cls-1" points="5.81 12.71 0 40.25 12.73 40.25 18.48 12.71 5.81 12.71"/><path class="cls-1" d="M109.8,17.39c-3-2.63-7.49-4-13.21-4A27.1,27.1,0,0,0,82.82,17c-4.7,2.69-7.58,6.41-8.54,11.08-1.19,5.73.09,10.13,3.8,13.07,3,2.37,7.48,3.58,13.3,3.58a26,26,0,0,0,13.71-3.46,16.12,16.12,0,0,0,7.77-10.82l.33-1.54c1-4.83-.15-8.69-3.39-11.49m-10,10.73a10.36,10.36,0,0,1-3,5.7,8.07,8.07,0,0,1-5.68,1.94A5.23,5.23,0,0,1,86.82,34c-1-1.19-1.21-2.79-.77-4.9A7.62,7.62,0,0,1,89,24.47a8.52,8.52,0,0,1,5.45-1.85c2.13,0,3.64.52,4.58,1.6a4.2,4.2,0,0,1,.84,3.9" transform="translate(-6.55 -3.39)"/><path class="cls-1" d="M191.12,17.39c-3-2.63-7.49-4-13.21-4A27.16,27.16,0,0,0,164.13,17c-4.7,2.69-7.58,6.41-8.54,11.08-1.19,5.73.09,10.13,3.8,13.07,3,2.37,7.49,3.58,13.3,3.58a26,26,0,0,0,13.71-3.46,16.12,16.12,0,0,0,7.77-10.82l.32-1.55c1-4.82-.13-8.68-3.37-11.48M182,28.12a10.22,10.22,0,0,1-3,5.7,8.1,8.1,0,0,1-5.69,1.94A5.23,5.23,0,0,1,168.93,34c-1-1.19-1.21-2.79-.77-4.9a7.58,7.58,0,0,1,2.92-4.63,8.51,8.51,0,0,1,5.44-1.85c2.13,0,3.63.52,4.58,1.6a4.15,4.15,0,0,1,.86,3.9" transform="translate(-6.55 -3.39)"/><path class="cls-1" d="M150.15,17.37c-3.15-2.62-7.59-4-13.19-4a31.15,31.15,0,0,0-6.33.69l2.54-10.72H120.75l-4.61,20.69c-.15.71-1.46,7-1.43,9.47a9.82,9.82,0,0,0,3.73,7.57c3,2.37,7.48,3.58,13.3,3.58a26,26,0,0,0,13.7-3.46,16.12,16.12,0,0,0,7.77-10.82v.06c.09-.35,2.06-8.87-3.06-13.11M141,28.12a10.21,10.21,0,0,1-3,5.7,8.07,8.07,0,0,1-5.68,1.94A5.21,5.21,0,0,1,128,34c-.22-.26-.24-.66-.23-1.59a28.25,28.25,0,0,1,1.31-6.28,3.62,3.62,0,0,1,1.06-1.67,8.47,8.47,0,0,1,5.43-1.85c2.14,0,3.64.52,4.59,1.6a4.16,4.16,0,0,1,.87,3.91" transform="translate(-6.55 -3.39)"/><path class="cls-1" d="M225.33,6.91a3.24,3.24,0,0,1-1,2.36,3.31,3.31,0,0,1-4.7,0,3.22,3.22,0,0,1-1-2.36,3.23,3.23,0,0,1,1-2.35,3.31,3.31,0,0,1,4.7,0,3.22,3.22,0,0,1,1,2.35m-.47,0a2.73,2.73,0,0,0-.84-2,2.88,2.88,0,0,0-4.9,2A2.77,2.77,0,0,0,220,9a2.76,2.76,0,0,0,2,.84A2.79,2.79,0,0,0,224,9a2.84,2.84,0,0,0,.84-2m-1.28,1.95H223l-.75-1.67h-1.08V8.86h-.58V5h1.65a1.33,1.33,0,0,1,1,.34,1,1,0,0,1,.15,1.35,1,1,0,0,1-.56.41Zm-2.46-2.14h1a.79.79,0,0,0,.59-.19.65.65,0,0,0,.19-.48.54.54,0,0,0-.2-.45.86.86,0,0,0-.51-.16h-1.07V6.72Z" transform="translate(-6.55 -3.39)"/></svg>